<svg width="415" height="414" viewBox="0 0 415 414" fill="none" xmlns="http://www.w3.org/2000/svg">
<path d="M288.196 207C288.196 251.458 252.068 287.5 207.5 287.5C162.932 287.5 126.804 251.458 126.804 207C126.804 162.542 162.932 126.5 207.5 126.5C252.068 126.5 288.196 162.542 288.196 207Z" stroke="#20B486" stroke-opacity="0.25"/>
<path d="M340.321 207.5C340.321 280.4 281.081 339.5 208.001 339.5C134.922 339.5 75.6812 280.4 75.6812 207.5C75.6812 134.6 134.922 75.5 208.001 75.5C281.081 75.5 340.321 134.6 340.321 207.5Z" stroke="#20B486" stroke-opacity="0.25"/>
<path d="M379.416 207C379.416 301.716 302.447 378.5 207.5 378.5C112.553 378.5 35.5846 301.716 35.5846 207C35.5846 112.284 112.553 35.5 207.5 35.5C302.447 35.5 379.416 112.284 379.416 207Z" stroke="#20B486" stroke-opacity="0.25"/>
<path d="M414.5 207C414.5 321.046 321.824 413.5 207.5 413.5C93.1759 413.5 0.5 321.046 0.5 207C0.5 92.9543 93.1759 0.5 207.5 0.5C321.824 0.5 414.5 92.9543 414.5 207Z" stroke="#20B486" stroke-opacity="0.25"/>
<ellipse rx="5.01208" ry="5" transform="matrix(-1 0 0 1 75.1812 48)" fill="#7F56D9"/>
</svg>
